<?xml version='1.0' encoding='UTF-8'?>
<svg xmlns:inkscape="http://www.inkscape.org/namespaces/inkscape" xmlns:sodipodi="http://sodipodi.sourceforge.net/DTD/sodipodi-0.dtd" xmlns="http://www.w3.org/2000/svg" xmlns:svg="http://www.w3.org/2000/svg" version="1.1" viewBox="0 0 360 185" preserveAspectRatio="xMidYMid meet" id="svg329" sodipodi:docname="Iraq_Parliament_2025.svg" inkscape:version="1.4.2 (f4327f4, 2025-05-13)" width="100%" height="100%">











<rect id="bg" x="0" y="0" width="360" height="185" fill="#c2c2c22d" pointer-events="none"/>








  <!-- خلفية SVG -->
  

  <defs id="defs329"/>

  <style id="anim-style">/* ===== Animation-ready hooks ===== */
:root{
  --svg-bg:#ffffff;
  --seat-fill:#e5e7eb;
  --seat-stroke:rgba(255, 255, 255, 0.34);
  --seat-stroke-w:0;
}
.bg{ fill: var(--svg-bg); }
.seat{
  fill: var(--seat-fill);
  stroke: var(--seat-stroke);
  stroke-width: var(--seat-stroke-w);
  transform-box: fill-box;
  transform-origin: center;
  transition: fill .18s ease, opacity .18s ease, transform .18s ease, filter .18s ease;
}
.seat.is-hidden{ opacity:0; }
.seat.is-dim{ opacity:.25; }
.seat.is-pop{ filter: drop-shadow(0 0 3px rgba(34,197,94,.55)); }
.seat.is-green{ fill:#22c55e; }
.seat.is-pink{ fill:#ff4da6; }
.seat.is-white{ fill:#ffffff; }
.party{ pointer-events: none; }</style><sodipodi:namedview id="namedview329" pagecolor="transparent" bordercolor="transparent" borderopacity="0.25" inkscape:showpageshadow="2" inkscape:pageopacity="0.0" inkscape:pagecheckerboard="0" inkscape:deskcolor="transparent" inkscape:zoom="7.945946" inkscape:cx="31.714286" inkscape:cy="108.04252" inkscape:window-width="2880" inkscape:window-height="1514" inkscape:window-x="-11" inkscape:window-y="-11" inkscape:window-maximized="1" inkscape:current-layer="svg329"/>

 
  <switch style="font-size:36px;font-weight:bold;text-align:center;text-anchor:middle;font-family:sans-serif" id="switch1">
    <text x="180.0" y="175.0" style="font-size:36px;font-weight:bold;text-align:center;text-anchor:middle;font-family:sans-serif" id="trsvg2-ckb" systemLanguage="ckb"><tspan id="trsvg1-ckb">٣٢٩</tspan></text>
    
  </switch>
  <g style="fill:#42b6ad" id="0-Reconstruction-and-Development-Coalition">
    <title id="title1">Reconstruction and Development Coalition</title>
    <circle cx="10.23" cy="174.85" r="4.12" id="circle1" class="seat" data-seat="1"/>
    <circle cx="20.52" cy="174.85" r="4.12" id="circle2" class="seat" data-seat="2"/>
    <circle cx="30.82" cy="174.85" r="4.12" id="circle3" class="seat" data-seat="3"/>
    <circle cx="41.12" cy="174.85" r="4.12" id="circle4" class="seat" data-seat="4"/>
    <circle cx="51.43" cy="174.85" r="4.12" id="circle5" class="seat" data-seat="5"/>
    <circle cx="61.73" cy="174.85" r="4.12" id="circle6" class="seat" data-seat="6"/>
    <circle cx="72.03" cy="174.85" r="4.12" id="circle7" class="seat" data-seat="7"/>
    <circle cx="82.34" cy="174.85" r="4.12" id="circle8" class="seat" data-seat="8"/>
    <circle cx="92.65" cy="174.85" r="4.12" id="circle9" class="seat" data-seat="9"/>
    <circle cx="10.93" cy="163.74" r="4.12" id="circle10" class="seat" data-seat="10"/>
    <circle cx="21.27" cy="163.72" r="4.12" id="circle11" class="seat" data-seat="11"/>
    <circle cx="31.60" cy="163.96" r="4.12" id="circle12" class="seat" data-seat="12"/>
    <circle cx="41.96" cy="163.96" r="4.12" id="circle13" class="seat" data-seat="13"/>
    <circle cx="52.33" cy="163.95" r="4.12" id="circle14" class="seat" data-seat="14"/>
    <circle cx="62.71" cy="163.94" r="4.12" id="circle15" class="seat" data-seat="15"/>
    <circle cx="73.17" cy="163.56" r="4.12" id="circle16" class="seat" data-seat="16"/>
    <circle cx="12.35" cy="152.70" r="4.12" id="circle17" class="seat" data-seat="17"/>
    <circle cx="83.61" cy="163.51" r="4.12" id="circle18" class="seat" data-seat="18"/>
    <circle cx="22.80" cy="152.67" r="4.12" id="circle19" class="seat" data-seat="19"/>
    <circle cx="33.17" cy="153.16" r="4.12" id="circle20" class="seat" data-seat="20"/>
    <circle cx="93.99" cy="163.92" r="4.12" id="circle21" class="seat" data-seat="21"/>
    <circle cx="43.65" cy="153.16" r="4.12" id="circle22" class="seat" data-seat="22"/>
    <circle cx="54.15" cy="153.16" r="4.12" id="circle23" class="seat" data-seat="23"/>
    <circle cx="14.50" cy="141.78" r="4.12" id="circle24" class="seat" data-seat="24"/>
    <circle cx="64.70" cy="153.17" r="4.12" id="circle25" class="seat" data-seat="25"/>
    <circle cx="25.09" cy="141.75" r="4.12" id="circle26" class="seat" data-seat="26"/>
    <circle cx="35.52" cy="142.50" r="4.12" id="circle27" class="seat" data-seat="27"/>
    <circle cx="75.48" cy="152.45" r="4.12" id="circle28" class="seat" data-seat="28"/>
    <circle cx="46.18" cy="142.53" r="4.12" id="circle29" class="seat" data-seat="29"/>
    <circle cx="86.18" cy="152.39" r="4.12" id="circle30" class="seat" data-seat="30"/>
    <circle cx="17.36" cy="131.02" r="4.12" id="circle31" class="seat" data-seat="31"/>
    <circle cx="56.89" cy="142.57" r="4.12" id="circle32" class="seat" data-seat="32"/>
    <circle cx="96.69" cy="153.24" r="4.12" id="circle33" class="seat" data-seat="33"/>
    <circle cx="28.14" cy="131.02" r="4.12" id="circle34" class="seat" data-seat="34"/>
    <circle cx="67.67" cy="142.63" r="4.12" id="circle35" class="seat" data-seat="35"/>
    <circle cx="38.65" cy="132.04" r="4.12" id="circle36" class="seat" data-seat="36"/>
    <circle cx="49.53" cy="132.13" r="4.12" id="circle37" class="seat" data-seat="37"/>
    <circle cx="20.92" cy="120.47" r="4.12" id="circle38" class="seat" data-seat="38"/>
    <circle cx="78.95" cy="141.64" r="4.12" id="circle39" class="seat" data-seat="39"/>
    <circle cx="60.51" cy="132.25" r="4.12" id="circle40" class="seat" data-seat="40"/>
    <circle cx="31.94" cy="120.53" r="4.12" id="circle41" class="seat" data-seat="41"/>
    <circle cx="42.53" cy="121.84" r="4.12" id="circle42" class="seat" data-seat="42"/>
    <circle cx="90.04" cy="141.65" r="4.12" id="circle43" class="seat" data-seat="43"/>
    <circle cx="71.61" cy="132.41" r="4.12" id="circle44" class="seat" data-seat="44"/>
    <circle cx="25.16" cy="110.18" r="4.12" id="circle45" class="seat" data-seat="45"/>
    <circle cx="53.70" cy="122.03" r="4.12" id="circle46" class="seat" data-seat="46"/>
  </g>
  <g style="fill:#ffdb00" id="1-Kurdistan-Democratic-Party">
    <title id="title46">Kurdistan Democratic Party</title>
    <circle cx="100.72" cy="142.98" r="4.12" id="circle47" class="seat" data-seat="47"/>
    <circle cx="36.46" cy="110.33" r="4.12" id="circle48" class="seat" data-seat="48"/>
    <circle cx="65.00" cy="122.27" r="4.12" id="circle49" class="seat" data-seat="49"/>
    <circle cx="83.53" cy="131.26" r="4.12" id="circle50" class="seat" data-seat="50"/>
    <circle cx="47.15" cy="111.94" r="4.12" id="circle51" class="seat" data-seat="51"/>
    <circle cx="30.07" cy="100.19" r="4.12" id="circle52" class="seat" data-seat="52"/>
    <circle cx="76.47" cy="122.59" r="4.12" id="circle53" class="seat" data-seat="53"/>
    <circle cx="58.64" cy="112.28" r="4.12" id="circle54" class="seat" data-seat="54"/>
    <circle cx="95.12" cy="131.43" r="4.12" id="circle55" class="seat" data-seat="55"/>
    <circle cx="41.67" cy="100.47" r="4.12" id="circle56" class="seat" data-seat="56"/>
    <circle cx="52.48" cy="102.42" r="4.12" id="circle57" class="seat" data-seat="57"/>
    <circle cx="70.32" cy="112.71" r="4.12" id="circle58" class="seat" data-seat="58"/>
    <circle cx="35.62" cy="90.54" r="4.12" id="circle59" class="seat" data-seat="59"/>
    <circle cx="106.00" cy="133.31" r="4.12" id="circle60" class="seat" data-seat="60"/>
    <circle cx="89.17" cy="121.41" r="4.12" id="circle61" class="seat" data-seat="61"/>
    <circle cx="64.34" cy="102.96" r="4.12" id="circle62" class="seat" data-seat="62"/>
    <circle cx="47.57" cy="91.00" r="4.12" id="circle63" class="seat" data-seat="63"/>
    <circle cx="82.22" cy="113.27" r="4.12" id="circle64" class="seat" data-seat="64"/>
    <circle cx="58.49" cy="93.30" r="4.12" id="circle65" class="seat" data-seat="65"/>
    <circle cx="41.79" cy="81.27" r="4.12" id="circle66" class="seat" data-seat="66"/>
    <circle cx="76.43" cy="103.64" r="4.12" id="circle67" class="seat" data-seat="67"/>
    <circle cx="101.36" cy="121.87" r="4.12" id="circle68" class="seat" data-seat="68"/>
    <circle cx="54.11" cy="81.96" r="4.12" id="circle69" class="seat" data-seat="69"/>
    <circle cx="70.75" cy="94.11" r="4.12" id="circle70" class="seat" data-seat="70"/>
    <circle cx="95.81" cy="112.21" r="4.12" id="circle71" class="seat" data-seat="71"/>
    <circle cx="48.55" cy="72.43" r="4.12" id="circle72" class="seat" data-seat="72"/>
  </g>
  <g style="fill:#f6851d" id="2-Progress-Party">
    <title id="title72">Progress Party</title>
    <circle cx="112.45" cy="124.38" r="4.12" id="circle73" class="seat" data-seat="73"/>
    <circle cx="88.81" cy="104.51" r="4.12" id="circle74" class="seat" data-seat="74"/>
    <circle cx="65.16" cy="84.65" r="4.12" id="circle75" class="seat" data-seat="75"/>
    <circle cx="83.29" cy="95.12" r="4.12" id="circle76" class="seat" data-seat="76"/>
    <circle cx="61.27" cy="73.41" r="4.12" id="circle77" class="seat" data-seat="77"/>
    <circle cx="77.84" cy="85.79" r="4.12" id="circle78" class="seat" data-seat="78"/>
    <circle cx="55.88" cy="64.05" r="4.12" id="circle79" class="seat" data-seat="79"/>
    <circle cx="108.67" cy="113.10" r="4.12" id="circle80" class="seat" data-seat="80"/>
    <circle cx="72.43" cy="76.51" r="4.12" id="circle81" class="seat" data-seat="81"/>
    <circle cx="103.38" cy="103.76" r="4.12" id="circle82" class="seat" data-seat="82"/>
    <circle cx="96.17" cy="96.41" r="4.12" id="circle83" class="seat" data-seat="83"/>
    <circle cx="69.01" cy="65.37" r="4.12" id="circle84" class="seat" data-seat="84"/>
    <circle cx="90.85" cy="87.21" r="4.12" id="circle85" class="seat" data-seat="85"/>
    <circle cx="119.98" cy="116.33" r="4.12" id="circle86" class="seat" data-seat="86"/>
    <circle cx="63.74" cy="56.17" r="4.12" id="circle87" class="seat" data-seat="87"/>
    <circle cx="85.56" cy="78.05" r="4.12" id="circle88" class="seat" data-seat="88"/>
    <circle cx="80.28" cy="68.93" r="4.12" id="circle89" class="seat" data-seat="89"/>
    <circle cx="116.95" cy="105.25" r="4.12" id="circle90" class="seat" data-seat="90"/>
    <circle cx="77.29" cy="57.89" r="4.12" id="circle91" class="seat" data-seat="91"/>
    <circle cx="104.26" cy="89.02" r="4.12" id="circle92" class="seat" data-seat="92"/>
    <circle cx="72.10" cy="48.82" r="4.12" id="circle93" class="seat" data-seat="93"/>
    <circle cx="111.80" cy="96.14" r="4.12" id="circle94" class="seat" data-seat="94"/>
    <circle cx="99.05" cy="79.97" r="4.12" id="circle95" class="seat" data-seat="95"/>
    <circle cx="93.86" cy="70.95" r="4.12" id="circle96" class="seat" data-seat="96"/>
    <circle cx="88.67" cy="61.94" r="4.12" id="circle97" class="seat" data-seat="97"/>
    <circle cx="128.45" cy="109.30" r="4.12" id="circle98" class="seat" data-seat="98"/>
    <circle cx="86.07" cy="51.02" r="4.12" id="circle99" class="seat" data-seat="99"/>
    <circle cx="80.93" cy="42.03" r="4.12" id="circle100" class="seat" data-seat="100"/>
  </g>
  <g style="fill:#538727" id="3-State-of-Law-Coalition">
    <title id="title100">State of Law Coalition</title>
    <circle cx="112.99" cy="82.41" r="4.12" id="circle101" class="seat" data-seat="101"/>
    <circle cx="107.84" cy="73.46" r="4.12" id="circle102" class="seat" data-seat="102"/>
    <circle cx="102.69" cy="64.52" r="4.12" id="circle103" class="seat" data-seat="103"/>
    <circle cx="97.54" cy="55.58" r="4.12" id="circle104" class="seat" data-seat="104"/>
    <circle cx="126.09" cy="98.41" r="4.12" id="circle105" class="seat" data-seat="105"/>
    <circle cx="120.97" cy="89.46" r="4.12" id="circle106" class="seat" data-seat="106"/>
    <circle cx="95.32" cy="44.77" r="4.12" id="circle107" class="seat" data-seat="107"/>
    <circle cx="90.18" cy="35.84" r="4.12" id="circle108" class="seat" data-seat="108"/>
    <circle cx="106.86" cy="49.88" r="4.12" id="circle109" class="seat" data-seat="109"/>
    <circle cx="112.01" cy="58.80" r="4.12" id="circle110" class="seat" data-seat="110"/>
    <circle cx="117.15" cy="67.71" r="4.12" id="circle111" class="seat" data-seat="111"/>
    <circle cx="122.30" cy="76.63" r="4.12" id="circle112" class="seat" data-seat="112"/>
    <circle cx="137.75" cy="103.38" r="4.12" id="circle113" class="seat" data-seat="113"/>
    <circle cx="99.82" cy="30.26" r="4.12" id="circle114" class="seat" data-seat="114"/>
    <circle cx="104.97" cy="39.18" r="4.12" id="circle115" class="seat" data-seat="115"/>
    <circle cx="130.79" cy="83.76" r="4.12" id="circle116" class="seat" data-seat="116"/>
    <circle cx="135.96" cy="92.68" r="4.12" id="circle117" class="seat" data-seat="117"/>
    <circle cx="116.56" cy="44.89" r="4.12" id="circle118" class="seat" data-seat="118"/>
    <circle cx="121.74" cy="53.83" r="4.12" id="circle119" class="seat" data-seat="119"/>
    <circle cx="109.80" cy="25.33" r="4.12" id="circle120" class="seat" data-seat="120"/>
    <circle cx="126.92" cy="62.78" r="4.12" id="circle121" class="seat" data-seat="121"/>
    <circle cx="115.00" cy="34.28" r="4.12" id="circle122" class="seat" data-seat="122"/>
    <circle cx="132.10" cy="71.74" r="4.12" id="circle123" class="seat" data-seat="123"/>
    <circle cx="147.71" cy="98.68" r="4.12" id="circle124" class="seat" data-seat="124"/>
    <circle cx="141.15" cy="79.14" r="4.12" id="circle125" class="seat" data-seat="125"/>
    <circle cx="126.61" cy="40.61" r="4.12" id="circle126" class="seat" data-seat="126"/>
    <circle cx="120.08" cy="21.07" r="4.12" id="circle127" class="seat" data-seat="127"/>
  </g>
  <g style="fill:#b5ca7f" id="4-Al-Sadiqoun-Bloc">
    <title id="title127">Al-Sadiqoun Bloc</title>
    <circle cx="131.83" cy="49.64" r="4.12" id="circle128" class="seat" data-seat="128"/>
    <circle cx="146.44" cy="88.15" r="4.12" id="circle129" class="seat" data-seat="129"/>
    <circle cx="125.34" cy="30.10" r="4.12" id="circle130" class="seat" data-seat="130"/>
    <circle cx="137.07" cy="58.70" r="4.12" id="circle131" class="seat" data-seat="131"/>
    <circle cx="142.31" cy="67.78" r="4.12" id="circle132" class="seat" data-seat="132"/>
    <circle cx="130.62" cy="17.48" r="4.12" id="circle133" class="seat" data-seat="133"/>
    <circle cx="136.94" cy="37.08" r="4.12" id="circle134" class="seat" data-seat="134"/>
    <circle cx="135.95" cy="26.64" r="4.12" id="circle135" class="seat" data-seat="135"/>
    <circle cx="142.22" cy="46.26" r="4.12" id="circle136" class="seat" data-seat="136"/>
    <circle cx="151.94" cy="75.62" r="4.12" id="circle137" class="seat" data-seat="137"/>
    <circle cx="147.53" cy="55.49" r="4.12" id="circle138" class="seat" data-seat="138"/>
    <circle cx="158.18" cy="95.26" r="4.12" id="circle139" class="seat" data-seat="139"/>
    <circle cx="157.37" cy="84.86" r="4.12" id="circle140" class="seat" data-seat="140"/>
    <circle cx="152.85" cy="64.77" r="4.12" id="circle141" class="seat" data-seat="141"/>
    <circle cx="141.37" cy="14.60" r="4.12" id="circle142" class="seat" data-seat="142"/>
    <circle cx="147.50" cy="34.32" r="4.12" id="circle143" class="seat" data-seat="143"/>
    <circle cx="146.77" cy="23.94" r="4.12" id="circle144" class="seat" data-seat="144"/>
    <circle cx="152.85" cy="43.71" r="4.12" id="circle145" class="seat" data-seat="145"/>
    <circle cx="158.22" cy="53.18" r="4.12" id="circle146" class="seat" data-seat="146"/>
    <circle cx="152.29" cy="12.42" r="4.12" id="circle147" class="seat" data-seat="147"/>
    <circle cx="163.04" cy="73.25" r="4.12" id="circle148" class="seat" data-seat="148"/>
    <circle cx="158.24" cy="32.33" r="4.12" id="circle149" class="seat" data-seat="149"/>
    <circle cx="157.76" cy="22.00" r="4.12" id="circle150" class="seat" data-seat="150"/>
    <circle cx="163.62" cy="62.76" r="4.12" id="circle151" class="seat" data-seat="151"/>
    <circle cx="169.00" cy="93.19" r="4.12" id="circle152" class="seat" data-seat="152"/>
    <circle cx="163.64" cy="42.00" r="4.12" id="circle153" class="seat" data-seat="153"/>
    <circle cx="168.61" cy="82.87" r="4.12" id="circle154" class="seat" data-seat="154"/>
  </g>
  <g style="fill:#000000" id="5-Badr-Organization">
    <title id="title154">Badr Organization</title>
    <circle cx="163.33" cy="10.97" r="4.12" id="circle155" style="fill:#ffaaaa" class="seat" data-seat="155"/>
    <circle cx="169.07" cy="51.79" r="4.12" id="circle156" style="fill:#ffaaaa" class="seat" data-seat="156"/>
    <circle cx="169.09" cy="31.13" r="4.12" id="circle157" style="fill:#ffaaaa" class="seat" data-seat="157"/>
    <circle cx="168.85" cy="20.83" r="4.12" id="circle158" style="fill:#ffaaaa" class="seat" data-seat="158"/>
    <circle cx="174.33" cy="72.06" r="4.12" id="circle159" style="fill:#ffaaaa" class="seat" data-seat="159"/>
    <circle cx="174.52" cy="61.74" r="4.12" id="circle160" style="fill:#ffaaaa" class="seat" data-seat="160"/>
    <circle cx="174.54" cy="41.14" r="4.12" id="circle161" style="fill:#ffaaaa" class="seat" data-seat="161"/>
    <circle cx="174.43" cy="10.24" r="4.12" id="circle162" style="fill:#ffaaaa" class="seat" data-seat="162"/>
    <circle cx="180.00" cy="20.44" r="4.12" id="circle163" style="fill:#ffaaaa" class="seat" data-seat="163"/>
    <circle cx="180.00" cy="92.50" r="4.12" id="circle164" style="fill:#ffaaaa" class="seat" data-seat="164"/>
    <circle cx="180.00" cy="82.21" r="4.12" id="circle165" style="fill:#ffaaaa" class="seat" data-seat="165"/>
    <circle cx="180.00" cy="51.32" r="4.12" id="circle166" style="fill:#ffaaaa" class="seat" data-seat="166"/>
    <circle cx="180.00" cy="30.74" r="4.12" id="circle167" style="fill:#ffaaaa" class="seat" data-seat="167"/>
    <circle cx="185.57" cy="10.24" r="4.12" id="circle168" style="fill:#ffaaaa" class="seat" data-seat="168"/>
    <circle cx="185.46" cy="41.14" r="4.12" id="circle169" style="fill:#ffaaaa" class="seat" data-seat="169"/>
    <circle cx="185.48" cy="61.74" r="4.12" id="circle170" style="fill:#ffaaaa" class="seat" data-seat="170"/>
    <circle cx="185.67" cy="72.06" r="4.12" id="circle171" style="fill:#ffaaaa" class="seat" data-seat="171"/>
    <circle cx="191.15" cy="20.83" r="4.12" id="circle172" style="fill:#ffaaaa" class="seat" data-seat="172"/>
  </g>
  <g style="fill:#00a550" id="6-Patriotic-Union-of-Kurdistan">
    <title id="title172">Patriotic Union of Kurdistan</title>
    <circle cx="190.91" cy="31.13" r="4.12" id="circle173" class="seat" data-seat="173"/>
    <circle cx="190.93" cy="51.79" r="4.12" id="circle174" class="seat" data-seat="174"/>
    <circle cx="196.67" cy="10.97" r="4.12" id="circle175" class="seat" data-seat="175"/>
    <circle cx="191.39" cy="82.87" r="4.12" id="circle176" class="seat" data-seat="176"/>
    <circle cx="196.36" cy="42.00" r="4.12" id="circle177" class="seat" data-seat="177"/>
    <circle cx="191.00" cy="93.19" r="4.12" id="circle178" class="seat" data-seat="178"/>
    <circle cx="196.38" cy="62.76" r="4.12" id="circle179" class="seat" data-seat="179"/>
    <circle cx="202.24" cy="22.00" r="4.12" id="circle180" class="seat" data-seat="180"/>
    <circle cx="201.76" cy="32.33" r="4.12" id="circle181" class="seat" data-seat="181"/>
    <circle cx="196.96" cy="73.25" r="4.12" id="circle182" class="seat" data-seat="182"/>
    <circle cx="207.71" cy="12.42" r="4.12" id="circle183" class="seat" data-seat="183"/>
    <circle cx="201.78" cy="53.18" r="4.12" id="circle184" class="seat" data-seat="184"/>
    <circle cx="207.15" cy="43.71" r="4.12" id="circle185" class="seat" data-seat="185"/>
    <circle cx="213.23" cy="23.94" r="4.12" id="circle186" class="seat" data-seat="186"/>
    <circle cx="212.50" cy="34.32" r="4.12" id="circle187" class="seat" data-seat="187"/>
  </g>
  <g style="fill:#106cb7" id="7-National-State-Forces">
    <title id="title187">National State Forces</title>
    <circle cx="218.63" cy="14.60" r="4.12" id="circle188" class="seat" data-seat="188"/>
    <circle cx="207.15" cy="64.77" r="4.12" id="circle189" class="seat" data-seat="189"/>
    <circle cx="202.63" cy="84.86" r="4.12" id="circle190" class="seat" data-seat="190"/>
    <circle cx="201.82" cy="95.26" r="4.12" id="circle191" class="seat" data-seat="191"/>
    <circle cx="212.47" cy="55.49" r="4.12" id="circle192" class="seat" data-seat="192"/>
    <circle cx="208.06" cy="75.62" r="4.12" id="circle193" class="seat" data-seat="193"/>
    <circle cx="217.78" cy="46.26" r="4.12" id="circle194" class="seat" data-seat="194"/>
    <circle cx="224.05" cy="26.64" r="4.12" id="circle195" class="seat" data-seat="195"/>
    <circle cx="223.06" cy="37.08" r="4.12" id="circle196" class="seat" data-seat="196"/>
    <circle cx="229.38" cy="17.48" r="4.12" id="circle197" class="seat" data-seat="197"/>
    <circle cx="217.69" cy="67.78" r="4.12" id="circle198" class="seat" data-seat="198"/>
    <circle cx="222.93" cy="58.70" r="4.12" id="circle199" class="seat" data-seat="199"/>
    <circle cx="234.66" cy="30.10" r="4.12" id="circle200" class="seat" data-seat="200"/>
    <circle cx="213.56" cy="88.15" r="4.12" id="circle201" class="seat" data-seat="201"/>
    <circle cx="228.17" cy="49.64" r="4.12" id="circle202" class="seat" data-seat="202"/>
    <circle cx="239.92" cy="21.07" r="4.12" id="circle203" class="seat" data-seat="203"/>
    <circle cx="233.39" cy="40.61" r="4.12" id="circle204" class="seat" data-seat="204"/>
    <circle cx="218.85" cy="79.14" r="4.12" id="circle205" class="seat" data-seat="205"/>
    <circle cx="212.29" cy="98.68" r="4.12" id="circle206" class="seat" data-seat="206"/>
  </g>
  <g style="fill:#3ca852" id="8-Azem-Alliance">
    <title id="title206">Azem Alliance</title>
    <circle cx="227.90" cy="71.74" r="4.12" id="circle207" class="seat" data-seat="207"/>
    <circle cx="245.00" cy="34.28" r="4.12" id="circle208" class="seat" data-seat="208"/>
    <circle cx="233.08" cy="62.78" r="4.12" id="circle209" class="seat" data-seat="209"/>
    <circle cx="250.20" cy="25.33" r="4.12" id="circle210" class="seat" data-seat="210"/>
    <circle cx="238.26" cy="53.83" r="4.12" id="circle211" class="seat" data-seat="211"/>
    <circle cx="243.44" cy="44.89" r="4.12" id="circle212" class="seat" data-seat="212"/>
    <circle cx="224.04" cy="92.68" r="4.12" id="circle213" class="seat" data-seat="213"/>
    <circle cx="229.21" cy="83.76" r="4.12" id="circle214" class="seat" data-seat="214"/>
    <circle cx="255.03" cy="39.18" r="4.12" id="circle215" class="seat" data-seat="215"/>
    <circle cx="260.18" cy="30.26" r="4.12" id="circle216" class="seat" data-seat="216"/>
    <circle cx="222.25" cy="103.38" r="4.12" id="circle217" class="seat" data-seat="217"/>
    <circle cx="237.70" cy="76.63" r="4.12" id="circle218" class="seat" data-seat="218"/>
    <circle cx="242.85" cy="67.71" r="4.12" id="circle219" class="seat" data-seat="219"/>
    <circle cx="247.99" cy="58.80" r="4.12" id="circle220" class="seat" data-seat="220"/>
    <circle cx="253.14" cy="49.88" r="4.12" id="circle221" class="seat" data-seat="221"/>
  </g>
  <g style="fill:#010e2e" id="9-Sovereignty-Alliance">
    <title id="title221">Sovereignty Alliance</title>
    <circle cx="269.82" cy="35.84" r="4.12" id="circle222" class="seat" data-seat="222"/>
    <circle cx="264.68" cy="44.77" r="4.12" id="circle223" class="seat" data-seat="223"/>
    <circle cx="239.03" cy="89.46" r="4.12" id="circle224" class="seat" data-seat="224"/>
    <circle cx="233.91" cy="98.41" r="4.12" id="circle225" class="seat" data-seat="225"/>
    <circle cx="262.46" cy="55.58" r="4.12" id="circle226" class="seat" data-seat="226"/>
    <circle cx="257.31" cy="64.52" r="4.12" id="circle227" class="seat" data-seat="227"/>
    <circle cx="252.16" cy="73.46" r="4.12" id="circle228" class="seat" data-seat="228"/>
    <circle cx="247.01" cy="82.41" r="4.12" id="circle229" class="seat" data-seat="229"/>
    <circle cx="279.07" cy="42.03" r="4.12" id="circle230" class="seat" data-seat="230"/>
  </g>
  <g style="fill:#00777d" id="10-Fundamental">
    <title id="title230">Foundation</title>
    <circle cx="273.93" cy="51.02" r="4.12" id="circle231" class="seat" data-seat="231"/>
    <circle cx="231.55" cy="109.30" r="4.12" id="circle232" class="seat" data-seat="232"/>
    <circle cx="271.33" cy="61.94" r="4.12" id="circle233" class="seat" data-seat="233"/>
    <circle cx="266.14" cy="70.95" r="4.12" id="circle234" class="seat" data-seat="234"/>
    <circle cx="260.95" cy="79.97" r="4.12" id="circle235" class="seat" data-seat="235"/>
    <circle cx="248.20" cy="96.14" r="4.12" id="circle236" class="seat" data-seat="236"/>
    <circle cx="287.90" cy="48.82" r="4.12" id="circle237" class="seat" data-seat="237"/>
    <circle cx="255.74" cy="89.02" r="4.12" id="circle238" class="seat" data-seat="238"/>
  </g>
  <g style="fill:#892f2f" id="11-National-Determination">
    <title id="title238">National Determination</title>
    <circle cx="282.71" cy="57.89" r="4.12" id="circle239" class="seat" data-seat="239"/>
    <circle cx="243.05" cy="105.25" r="4.12" id="circle240" class="seat" data-seat="240"/>
    <circle cx="279.72" cy="68.93" r="4.12" id="circle241" class="seat" data-seat="241"/>
    <circle cx="274.44" cy="78.05" r="4.12" id="circle242" class="seat" data-seat="242"/>
  </g>
  <g style="fill:#2e2566" id="12-Huqooq">
    <title id="title242">Huqooq</title>
    <circle cx="296.26" cy="56.17" r="4.12" id="circle243" class="seat" data-seat="243"/>
    <circle cx="240.02" cy="116.33" r="4.12" id="circle244" class="seat" data-seat="244"/>
    <circle cx="269.15" cy="87.21" r="4.12" id="circle245" class="seat" data-seat="245"/>
    <circle cx="290.99" cy="65.37" r="4.12" id="circle246" class="seat" data-seat="246"/>
    <circle cx="263.83" cy="96.41" r="4.12" id="circle247" class="seat" data-seat="247"/>
    <circle cx="256.62" cy="103.76" r="4.12" id="circle248" class="seat" data-seat="248"/>
  </g>
  <g style="fill:#fdbd13" id="13-Abshir-Ya-Iraq">
    <title id="title248">Abshir Ya Iraq</title>
    <circle cx="287.57" cy="76.51" r="4.12" id="circle249" class="seat" data-seat="249"/>
    <circle cx="251.33" cy="113.10" r="4.12" id="circle250" class="seat" data-seat="250"/>
    <circle cx="304.12" cy="64.05" r="4.12" id="circle251" class="seat" data-seat="251"/>
    <circle cx="282.16" cy="85.79" r="4.12" id="circle252" class="seat" data-seat="252"/>
  </g>
  <g style="fill:#4ec6c7" id="14-Ishraqat-Kanoon">
    <title id="title252">Ishraqat Kanoon</title>
    <circle cx="298.73" cy="73.41" r="4.12" id="circle253" class="seat" data-seat="253"/>
    <circle cx="276.71" cy="95.12" r="4.12" id="circle254" class="seat" data-seat="254"/>
    <circle cx="294.84" cy="84.65" r="4.12" id="circle255" class="seat" data-seat="255"/>
    <circle cx="271.19" cy="104.51" r="4.12" id="circle256" class="seat" data-seat="256"/>
    <circle cx="247.55" cy="124.38" r="4.12" id="circle257" class="seat" data-seat="257"/>
    <circle cx="311.45" cy="72.43" r="4.12" id="circle258" class="seat" data-seat="258"/>
    <circle cx="264.19" cy="112.21" r="4.12" id="circle259" class="seat" data-seat="259"/>
    <circle cx="289.25" cy="94.11" r="4.12" id="circle260" class="seat" data-seat="260"/>
  </g>
  <g style="fill:#bfda0f" id="15-Services">
    <title id="title260">Services</title>
    <circle cx="305.89" cy="81.96" r="4.12" id="circle261" class="seat" data-seat="261"/>
    <circle cx="258.64" cy="121.87" r="4.12" id="circle262" class="seat" data-seat="262"/>
    <circle cx="283.57" cy="103.64" r="4.12" id="circle263" class="seat" data-seat="263"/>
    <circle cx="318.21" cy="81.27" r="4.12" id="circle264" class="seat" data-seat="264"/>
    <circle cx="301.51" cy="93.30" r="4.12" id="circle265" class="seat" data-seat="265"/>
  </g>
  <g style="fill:#f7c76c" id="16-Tasmim-Alliance">
    <title id="title265">Tasmim Alliance</title>
    <circle cx="277.78" cy="113.27" r="4.12" id="circle266" class="seat" data-seat="266"/>
    <circle cx="312.43" cy="91.00" r="4.12" id="circle267" class="seat" data-seat="267"/>
    <circle cx="295.66" cy="102.96" r="4.12" id="circle268" class="seat" data-seat="268"/>
    <circle cx="270.83" cy="121.41" r="4.12" id="circle269" class="seat" data-seat="269"/>
    <circle cx="254.00" cy="133.31" r="4.12" id="circle270" class="seat" data-seat="270"/>
    <circle cx="324.38" cy="90.54" r="4.12" id="circle271" class="seat" data-seat="271"/>
  </g>
  <g style="fill:#673301" id="17-Kurdistan-Islamic-Union">
    <title id="title271">Kurdistan Islamic Union</title>
    <circle cx="289.68" cy="112.71" r="4.12" id="circle272" class="seat" data-seat="272"/>
    <circle cx="307.52" cy="102.42" r="4.12" id="circle273" class="seat" data-seat="273"/>
    <circle cx="318.33" cy="100.47" r="4.12" id="circle274" class="seat" data-seat="274"/>
    <circle cx="264.88" cy="131.43" r="4.12" id="circle275" class="seat" data-seat="275"/>
  </g>
  <g style="fill:#7f0284" id="18-National-Stance-Movement">
    <title id="title275">National Stance Movement</title>
    <circle cx="301.36" cy="112.28" r="4.12" id="circle276" class="seat" data-seat="276"/>
    <circle cx="283.53" cy="122.59" r="4.12" id="circle277" class="seat" data-seat="277"/>
    <circle cx="329.93" cy="100.19" r="4.12" id="circle278" class="seat" data-seat="278"/>
    <circle cx="312.85" cy="111.94" r="4.12" id="circle279" class="seat" data-seat="279"/>
    <circle cx="276.47" cy="131.26" r="4.12" id="circle280" class="seat" data-seat="280"/>
  </g>
  <g style="fill:#ff681f" id="19-New-Generation-Movement">
    <title id="title280">New Generation Movement</title>
    <circle cx="295.00" cy="122.27" r="4.12" id="circle281" class="seat" data-seat="281"/>
    <circle cx="323.54" cy="110.33" r="4.12" id="circle282" class="seat" data-seat="282"/>
    <circle cx="259.28" cy="142.98" r="4.12" id="circle283" class="seat" data-seat="283"/>
  </g>
  <g style="fill:#daa520" id="20-Al-Anbar-Is-Our-Identity-Alliance">
    <title id="title283">Al-Anbar Is Our Identity Alliance</title>
    <circle cx="306.30" cy="122.03" r="4.12" id="circle284" class="seat" data-seat="284"/>
    <circle cx="334.84" cy="110.18" r="4.12" id="circle285" class="seat" data-seat="285"/>
    <circle cx="288.39" cy="132.41" r="4.12" id="circle286" class="seat" data-seat="286"/>
  </g>
  <g style="fill:#009941" id="21-Nineveh-For-Its-People">
    <title id="title286">Nineveh Residents Alliance</title>
    <circle cx="269.96" cy="141.65" r="4.12" id="circle287" class="seat" data-seat="287"/>
    <circle cx="317.47" cy="121.84" r="4.12" id="circle288" class="seat" data-seat="288"/>
    <circle cx="328.06" cy="120.53" r="4.12" id="circle289" class="seat" data-seat="289"/>
  </g>
  <g style="fill:#831d45" id="22-Wasit-Ajmal-Alliance">
    <title id="title289">Wasit Ajmal Alliance</title>
    <circle cx="299.49" cy="132.25" r="4.12" id="circle290" class="seat" data-seat="290"/>
    <circle cx="281.05" cy="141.64" r="4.12" id="circle291" class="seat" data-seat="291"/>
    <circle cx="339.08" cy="120.47" r="4.12" id="circle292" class="seat" data-seat="292"/>
    <circle cx="310.47" cy="132.13" r="4.12" id="circle293" class="seat" data-seat="293"/>
  </g>
  <g style="fill:#faca20" id="23-Qimam-Coalition">
    <title id="title293">Qimam Coalition</title>
    <circle cx="321.35" cy="132.04" r="4.12" id="circle294" class="seat" data-seat="294"/>
    <circle cx="292.33" cy="142.63" r="4.12" id="circle295" class="seat" data-seat="295"/>
    <circle cx="331.86" cy="131.02" r="4.12" id="circle296" class="seat" data-seat="296"/>
  </g>
  <g style="fill:#002d4c" id="24-Al-Tafawwuq">
    <title id="title296">Al-Tafawwuq</title>
    <circle cx="263.31" cy="153.24" r="4.12" id="circle297" class="seat" data-seat="297"/>
    <circle cx="303.11" cy="142.57" r="4.12" id="circle298" class="seat" data-seat="298"/>
  </g>
  <g style="fill:#000000" id="25-Al-Faw-Zakho-Coalition">
    <title id="title298">Al-Faw Zakho Coalition</title>
    <circle cx="342.64" cy="131.02" r="4.12" id="circle299" class="seat" data-seat="299"/>
    <circle cx="273.82" cy="152.39" r="4.12" id="circle300" class="seat" data-seat="300"/>
  </g>
  <g style="fill:#459a70" id="26-National-Party-of-the-Masses">
    <title id="title300">Al-Jamahir al-Wataniya</title>
    <circle cx="313.82" cy="142.53" r="4.12" id="circle301" class="seat" data-seat="301"/>
    <circle cx="284.52" cy="152.45" r="4.12" id="circle302" class="seat" data-seat="302"/>
  </g>
  <g style="fill:#0295fc" id="27-Unified-Iraqi-Turkmen-Front">
    <title id="title302">Unified Iraqi Turkmen Front</title>
    <circle cx="324.48" cy="142.50" r="4.12" id="circle303" class="seat" data-seat="303"/>
    <circle cx="334.91" cy="141.75" r="4.12" id="circle304" class="seat" data-seat="304"/>
  </g>
  <g style="fill:#b48b10" id="28-Sumerian-Movement">
    <title id="title304">Sumeriyoun Movement</title>
    <circle cx="295.30" cy="153.17" r="4.12" id="circle305" class="seat" data-seat="305"/>
    <circle cx="345.50" cy="141.78" r="4.12" id="circle306" class="seat" data-seat="306"/>
  </g>
  <g style="fill:#4c6f5b" id="29-Saladin-Unified-Alliance">
    <title id="title306">Unified Alliance of Saladin</title>
    <circle cx="305.85" cy="153.16" r="4.12" id="circle307" class="seat" data-seat="307"/>
  </g>
  <g style="fill:#f01e27" id="30-Nineveh-People-Union">
    <title id="title307">Nineveh People Union</title>
    <circle cx="316.35" cy="153.16" r="4.12" id="circle308" class="seat" data-seat="308"/>
    <circle cx="266.01" cy="163.92" r="4.12" id="circle309" class="seat" data-seat="309"/>
  </g>
  <g style="fill:#9e080a" id="31-Arab-Project">
    <title id="title309">Arabic Project in Iraq</title>
    <circle cx="326.83" cy="153.16" r="4.12" id="circle310" class="seat" data-seat="310"/>
  </g>
  <g style="fill:#f1be85" id="32-Diyala-First-Coalition">
    <title id="title310">Diyala First Coalition</title>
    <circle cx="337.20" cy="152.67" r="4.12" id="circle311" class="seat" data-seat="311"/>
  </g>
  <g style="fill:#560e0f" id="33-Arab-Alliance-in-Kirkuk">
    <title id="title311">Arab Alliance in Kirkuk</title>
    <circle cx="276.39" cy="163.51" r="4.12" id="circle312" class="seat" data-seat="312"/>
  </g>
  <g style="fill:#00641e" id="34-Tahaluf-Sharaqatuna">
    <title id="title312">Tahaluf Sharaqatuna</title>
    <circle cx="347.65" cy="152.70" r="4.12" id="circle313" class="seat" data-seat="313"/>
  </g>
  <g style="fill:#77225d" id="35-National-Identity">
    <title id="title313">National Identity Alliance</title>
    <circle cx="286.83" cy="163.56" r="4.12" id="circle314" class="seat" data-seat="314"/>
  </g>
  <g style="fill:#f25822" id="36-Kurdistan-Justice-Group">
    <title id="title314">Kurdistan Justice Group</title>
    <circle cx="297.29" cy="163.94" r="4.12" id="circle315" class="seat" data-seat="315"/>
  </g>
  <g style="fill:#4d3936" id="37-Yazidi-Cause-Alliance">
    <title id="title315">Yazidi Cause Alliance</title>
    <circle cx="307.67" cy="163.95" r="4.12" id="circle316" class="seat" data-seat="316"/>
  </g>
  <g style="fill:#fa8916" id="38-Thabitun">
    <title id="title316">Thabitun</title>
    <circle cx="318.04" cy="163.96" r="4.12" id="circle317" class="seat" data-seat="317"/>
  </g>
  <g style="fill:#16cef0" id="39-Idraak-Movement">
    <title id="title317">Idraak Movement</title>
    <circle cx="328.40" cy="163.96" r="4.12" id="circle318" class="seat" data-seat="318"/>
  </g>
  <g style="fill:#b92815" id="40-State-Support-Bloc">
    <title id="title318">State Support Bloc</title>
    <circle cx="338.73" cy="163.72" r="4.12" id="circle319" class="seat" data-seat="319"/>
  </g>
  <g style="fill:#f8f9fa" id="8-Azem-Alliance">
    <title id="title319">Reserved</title>
    <circle cx="349.07" cy="163.74" r="4.12" id="circle320" style="fill:#4d3936" class="seat" data-seat="320"/>
    
    </g>
    <g style="fill:#f8f9fa" id="41-Reserved">
    <title id="title319">Reserved</title>
    
    
    
    
    <circle cx="267.35" cy="174.85" r="4.12" id="circle321" style="fill:#536c67" class="seat" data-seat="321"/>
    <circle cx="277.66" cy="174.85" r="4.12" id="circle322" style="fill:#536c67" class="seat" data-seat="322"/>
    <circle cx="287.97" cy="174.85" r="4.12" id="circle323" style="fill:#536c67" class="seat" data-seat="323"/>
    <circle cx="298.27" cy="174.85" r="4.12" id="circle324" style="fill:#536c67" class="seat" data-seat="324"/>
    <circle cx="308.57" cy="174.85" r="4.12" id="circle325" style="fill:#536c67" class="seat" data-seat="325"/>
    <circle cx="318.88" cy="174.85" r="4.12" id="circle326" style="fill:#536c67" class="seat" data-seat="326"/>
    <circle cx="329.18" cy="174.85" r="4.12" id="circle327" style="fill:#536c67" class="seat" data-seat="327"/>
    <circle cx="339.48" cy="174.85" r="4.12" id="circle328" style="fill:#536c67" class="seat" data-seat="328"/>
    
    
    
    
    <circle cx="349.77" cy="174.85" r="4.12" id="circle329" style="fill:#536c67" class="seat" data-seat="329"/>
  </g>
</svg>
